<svg id="Layer_1" data-name="Layer 1" xmlns="http://www.w3.org/2000/svg" xmlns:xlink="http://www.w3.org/1999/xlink" viewBox="0 0 262 332.33"><defs><style>.cls-1{fill:none;}.cls-2{fill:#16b8f8;}.cls-3{fill:url(#linear-gradient);}</style><linearGradient id="linear-gradient" x1="131.1" y1="20.76" x2="131.1" y2="263.47" gradientUnits="userSpaceOnUse"><stop offset="0" stop-color="#074997"/><stop offset="0.12" stop-color="#0b6ab4"/><stop offset="0.25" stop-color="#0e86cc"/><stop offset="0.39" stop-color="#119bdf"/><stop offset="0.55" stop-color="#13aaec"/><stop offset="0.73" stop-color="#14b3f4"/><stop offset="1" stop-color="#14b6f6"/></linearGradient></defs><rect class="cls-1" x="12.1" y="11.66" width="238" height="309"/><path class="cls-2" d="M38.62,317.58a2.2,2.2,0,0,1,0,1.69,2.06,2.06,0,0,1-1.13,1.2,1.66,1.66,0,0,1-.8.19,1.9,1.9,0,0,1-1.87-1.35l-2.17-5.59H18.19l-2.13,5.59a1.91,1.91,0,0,1-1.91,1.35,1.8,1.8,0,0,1-.8-.19,2.12,2.12,0,0,1-1.09-1.2,2.15,2.15,0,0,1,0-1.69L15,310.64a2,2,0,0,1,.62-.91,2,2,0,0,1,1.29-.49H31l-5.55-14.31-3.87,10.12a2.11,2.11,0,0,1-1.13,1.21,1.87,1.87,0,0,1-1.57,0,2,2,0,0,1-1.11-1.2,2.4,2.4,0,0,1,0-1.71l5.81-15.05a1.93,1.93,0,0,1,1.89-1.35,1.91,1.91,0,0,1,1.89,1.35Z"/><path class="cls-2" d="M47,287.79,67.66,317a2.38,2.38,0,0,1,.43,1.69,2.18,2.18,0,0,1-.78,1.47,1.82,1.82,0,0,1-1.51.44,2,2,0,0,1-1.38-.84l-17-24.06v22.71a2.21,2.21,0,0,1-.6,1.56,1.92,1.92,0,0,1-1.47.65,1.87,1.87,0,0,1-1.46-.65,2.21,2.21,0,0,1-.6-1.56V289.14a2.4,2.4,0,0,1,.17-.87,2.27,2.27,0,0,1,.49-.75,2.47,2.47,0,0,1,.71-.5A2.18,2.18,0,0,1,46,287,1.84,1.84,0,0,1,47,287.79Zm19.05-.87a2,2,0,0,1,1,.29,1.89,1.89,0,0,1,.76.82,2.51,2.51,0,0,1,.26,1.11v18.17a2.19,2.19,0,0,1-.6,1.57,1.9,1.9,0,0,1-1.44.65,2,2,0,0,1-1.46-.65,2.19,2.19,0,0,1-.63-1.57V289.14a2.16,2.16,0,0,1,.63-1.57A1.93,1.93,0,0,1,66.06,286.92Z"/><path class="cls-2" d="M94.66,286.92a1.85,1.85,0,0,1,1.44.65,2.38,2.38,0,0,1,0,3.18,1.9,1.9,0,0,1-1.44.65h-8.3v27a2.23,2.23,0,0,1-.6,1.57,1.93,1.93,0,0,1-2.89,0,2.25,2.25,0,0,1-.6-1.57v-27H74a1.91,1.91,0,0,1-1.45-.65,2.41,2.41,0,0,1,0-3.18,1.89,1.89,0,0,1,1.45-.65Z"/><path class="cls-2" d="M115.18,286.92a8.26,8.26,0,0,1,6.29,2.82,9.69,9.69,0,0,1,2.59,6.82V311a9.72,9.72,0,0,1-2.59,6.82,8.26,8.26,0,0,1-6.29,2.82h-7.06a8.19,8.19,0,0,1-6.44-3,9.89,9.89,0,0,1-2.4-6.75V296.56a9.69,9.69,0,0,1,2.59-6.82,8.26,8.26,0,0,1,6.29-2.82Zm4.75,24.1V296.56a5.8,5.8,0,0,0-.37-2,5.26,5.26,0,0,0-1-1.64,4.62,4.62,0,0,0-1.51-1.08,4.32,4.32,0,0,0-1.87-.41h-7a4.42,4.42,0,0,0-3.38,1.5,5.22,5.22,0,0,0-1.38,3.66v14.51A5.14,5.14,0,0,0,105.1,315a4.56,4.56,0,0,0,3.16,1.16h6.93a4.39,4.39,0,0,0,3.37-1.52A5.27,5.27,0,0,0,119.93,311Z"/><path class="cls-2" d="M132.41,286.92h14a8.13,8.13,0,0,1,6.21,2.79,10.06,10.06,0,0,1,0,13.43,8.14,8.14,0,0,1-6.11,2.81l-12,.05v12.43a2.22,2.22,0,0,1-.6,1.57,2,2,0,0,1-2.93,0,2.23,2.23,0,0,1-.6-1.57V303.78a2.21,2.21,0,0,1,.6-1.56,1.9,1.9,0,0,1,1.45-.66l14,0a4.35,4.35,0,0,0,3.24-1.52,5.41,5.41,0,0,0,0-7.14,4.31,4.31,0,0,0-3.3-1.47H134.49v3.71a2.23,2.23,0,0,1-.6,1.57,1.9,1.9,0,0,1-1.47.65,1.88,1.88,0,0,1-1.46-.65,2.23,2.23,0,0,1-.6-1.57v-6a2.21,2.21,0,0,1,.6-1.56A1.93,1.93,0,0,1,132.41,286.92Z"/><path class="cls-2" d="M175.53,286.92a8.26,8.26,0,0,1,6.29,2.82,9.69,9.69,0,0,1,2.59,6.82V311a9.72,9.72,0,0,1-2.59,6.82,8.26,8.26,0,0,1-6.29,2.82h-7.06a8.2,8.2,0,0,1-6.44-3,9.89,9.89,0,0,1-2.4-6.75V296.56a9.65,9.65,0,0,1,2.6-6.82,8.22,8.22,0,0,1,6.28-2.82Zm4.75,24.1V296.56a5.8,5.8,0,0,0-.37-2,5.26,5.26,0,0,0-1-1.64,4.62,4.62,0,0,0-1.51-1.08,4.32,4.32,0,0,0-1.87-.41h-7a4.42,4.42,0,0,0-3.38,1.5,5.22,5.22,0,0,0-1.38,3.66v14.51a5.14,5.14,0,0,0,1.69,3.95,4.56,4.56,0,0,0,3.16,1.16h6.93a4.39,4.39,0,0,0,3.37-1.52A5.22,5.22,0,0,0,180.28,311Z"/><path class="cls-2" d="M195.07,316.18h14.22a1.87,1.87,0,0,1,1.44.65,2.41,2.41,0,0,1,0,3.18,1.9,1.9,0,0,1-1.44.65H193a1.87,1.87,0,0,1-1.44-.65,2.21,2.21,0,0,1-.61-1.57V289.13a2.2,2.2,0,0,1,.61-1.57,2,2,0,0,1,2.92,0,2.21,2.21,0,0,1,.6,1.57Z"/><path class="cls-2" d="M217.54,286.92a2,2,0,0,1,1.05.29,2.16,2.16,0,0,1,.76.82,2.3,2.3,0,0,1,.29,1.11v29.31A2.21,2.21,0,0,1,219,320a1.92,1.92,0,0,1-1.47.65,1.88,1.88,0,0,1-1.46-.65,2.21,2.21,0,0,1-.6-1.56V289.14a2.22,2.22,0,0,1,.6-1.57A1.83,1.83,0,0,1,217.54,286.92Z"/><path class="cls-2" d="M234.11,306a8.16,8.16,0,0,1-6.21-2.75,10.11,10.11,0,0,1,0-13.49,8.15,8.15,0,0,1,6.21-2.8h13.95a1.88,1.88,0,0,1,1.44.66,2.39,2.39,0,0,1,0,3.17,1.91,1.91,0,0,1-1.44.66H234.11a4.3,4.3,0,0,0-3.31,1.47,5.39,5.39,0,0,0,0,7.16,4.35,4.35,0,0,0,3.29,1.5h0a1.87,1.87,0,0,1,1.45.65,2.21,2.21,0,0,1,.6,1.56,2.23,2.23,0,0,1-.6,1.57,1.89,1.89,0,0,1-1.45.65h0Zm7.15-4.48a8.17,8.17,0,0,1,6.22,2.79,10.12,10.12,0,0,1,0,13.57,8.21,8.21,0,0,1-6.23,2.82H227.36a1.9,1.9,0,0,1-1.44-.65,2.28,2.28,0,0,1-.6-1.59,2.25,2.25,0,0,1,.6-1.59,1.87,1.87,0,0,1,1.44-.65h13.91a4.36,4.36,0,0,0,3.33-1.5,5.17,5.17,0,0,0,1.37-3.61,5.36,5.36,0,0,0-1.37-3.67,4.44,4.44,0,0,0-3.33-1.44h-.05a1.9,1.9,0,0,1-1.44-.65,2.41,2.41,0,0,1,0-3.18,1.87,1.87,0,0,1,1.44-.65Z"/><path class="cls-3" d="M181.29,39.57c.24-1.09,1.87-5.13,3.51-6.73a12.37,12.37,0,0,1,5.58-3.12h0c3.77-.58,9.87,4.87,14.77,9.25a70.61,70.61,0,0,0,6,5,10.1,10.1,0,0,0,8.64,1.63,4,4,0,0,0,3-3.26c.27-3.45-1.09-6.79-4-9.91-7-7.4-21.27-11.73-28.42-11.57a13.33,13.33,0,0,0-4.29.8,14.77,14.77,0,0,0-6.58,4.66,14.24,14.24,0,0,0-2.8,6.33v0L166.6,74.93q-1.33-.75-2.61-1.41v0l-.55-.26-.1,0h0a78.4,78.4,0,0,0-66.42.61,3,3,0,0,0-.48.19h0l0,0,.71-.35-9.61-41v0a14.22,14.22,0,0,0-2.8-6.34,14.82,14.82,0,0,0-6.59-4.66,13.56,13.56,0,0,0-4.29-.8c-7.15-.16-21.43,4.17-28.42,11.57-3,3.12-4.31,6.46-4,9.91a4,4,0,0,0,3,3.27A10.11,10.11,0,0,0,53,43.88a70.61,70.61,0,0,0,6-5c4.91-4.38,11-9.83,14.77-9.26h0a12.25,12.25,0,0,1,5.57,3.11c1.64,1.6,3.27,5.64,3.51,6.73l8.71,37,1-.51-.06.15A81.07,81.07,0,0,0,73.7,90.67a83,83,0,0,0-8.56,10.5L39.27,80.48l10.95,64.85c-.08,1.51-.13,3-.13,4.54s0,2.88,0,4.34c-.08,10.65-.16,21.66,3.57,30.67A201,201,0,0,0,84,235.05c7.28,8.61,14.68,15.38,22,20.14,8.45,5.49,16.78,8.28,24.77,8.28,15.11,0,31.37-9.7,47-28.05A189.72,189.72,0,0,0,208,185.11c3.61-9.13,3.58-21.51,3.55-32.42,0-1,0-1.9,0-2.82a89.15,89.15,0,0,0-.78-11.71L222.5,85l-24.74,18.12a83.94,83.94,0,0,0-9.88-12.44A91.89,91.89,0,0,0,172,78.15s0-.07,0-.1Zm-18.61,37.1c.66.37,1.34.75,2,1.14L146.9,97.24c.17,15.24.32,27.85.49,42.77l-17.58,12.88-12.74-10.18c.19-16.18.34-29.41.52-45.6L98.88,76.68a74.5,74.5,0,0,1,63.8,0ZM75.91,93.33,93,112.53a4.46,4.46,0,0,0-.65,2.29,4.58,4.58,0,1,0,2.48-4L77.67,91.54a78.26,78.26,0,0,1,15.73-12l18.18,19.85c-.15,13.63-.31,24.93-.47,38.53L67.82,103.32A81.19,81.19,0,0,1,75.91,93.33Zm21,19.48a2,2,0,1,1-2,2A2,2,0,0,1,96.9,112.81ZM53.46,154.24c0-1.48,0-2.93,0-4.37,0-.72,0-1.44.06-2.16L91.94,169l1.21,7.15L78.18,222a200.47,200.47,0,0,1-21.4-38.37C53.3,175.2,53.38,164.54,53.46,154.24ZM183.18,223l-17.76-45.63.22-.12,17.71,45.51Zm-52.75,37.06h-.25l.22-63.34.25-.14ZM130.2,193,96.25,174.13,92.58,152.4l37.69,30.14,38.45-28.17-4.38,19.73ZM79.29,223.49l15.42-46.33.22.12L79.47,223.74Zm23.35,25.08,6.87-32.7a4.08,4.08,0,1,0-4.88-4,4,4,0,0,0,2.07,3.51l-6.54,31.16a116.14,116.14,0,0,1-13.54-13.69c-2-2.31-3.9-4.77-5.82-7.33l15.76-47.35,32,17.75-.22,64C119.14,259.26,110.35,254.6,102.64,248.57Zm4.84-36.69a1.23,1.23,0,1,1,1.23,1.22A1.23,1.23,0,0,1,107.48,211.88Zm54.33,34.77-6.49-30.92a4,4,0,1,0-2.81.48l6.81,32.44c-8.58,6.64-17.74,11-27.06,11.39l.22-64.47,31.32-17.3,18.1,46.5A127,127,0,0,1,161.81,246.65Zm-9.73-34.44a1.23,1.23,0,1,1,1.23,1.23A1.23,1.23,0,0,1,152.08,212.21Zm52.71-28.35A189.53,189.53,0,0,1,184.62,221l-17.37-44.61.07,0,1.86-8.4L208,146.49c0,1.12.08,2.25.08,3.38v2.83C208.13,163.31,208.17,175.34,204.79,183.86Zm12.45-90.81L206,143.73l-35.7,19.71,3.82-17.23-.14.1.14-.63-43.76,32.06L87.65,143.58l.1.62-.1-.09,3.47,20.56L53.39,143.76l-9.3-55.07,85.63,68.47,69.52-50.93.37-.15a.22.22,0,0,0-.05-.08ZM195,105.17l-41.6,30.48c-.15-12.54-.29-23.31-.44-36.11L169.85,81a108.2,108.2,0,0,1,13.46,10.73l-17,19a4.5,4.5,0,1,0,2.48,4,4.46,4.46,0,0,0-.65-2.29l17-19A77.42,77.42,0,0,1,195,105.17Zm-28.65,9.65a2,2,0,1,1-2-2A2,2,0,0,1,166.3,114.82Z"/></svg>